<svg width="769" height="171" viewBox="0 0 769 171" fill="none" xmlns="http://www.w3.org/2000/svg">
<path d="M275.159 87.7017C275.159 94.8573 274.29 102.319 272.551 110.086C270.872 117.853 268.504 125.467 265.446 132.929C262.388 140.39 258.731 147.393 254.474 153.937C250.217 160.542 245.541 166.23 240.444 171L229.023 164.67C230.641 161.612 232.17 158.187 233.609 154.395C235.048 150.604 236.337 146.598 237.476 142.378C238.676 138.097 239.725 133.693 240.624 129.167C241.583 124.642 242.363 120.177 242.962 115.774C243.622 111.309 244.102 106.997 244.401 102.839C244.761 98.6186 244.941 94.7044 244.941 91.096C244.941 88.7108 244.851 86.1727 244.671 83.4818C244.491 80.7296 244.102 78.008 243.502 75.3171C242.962 72.5649 242.213 69.9351 241.254 67.4276C240.294 64.9201 239.005 62.7184 237.387 60.8224C235.828 58.9265 233.909 57.3975 231.631 56.2355C229.412 55.0735 226.774 54.4925 223.717 54.4925C220.719 54.4925 218.051 55.1958 215.712 56.6025C213.374 57.948 211.306 59.7522 209.507 62.015C207.708 64.2167 206.149 66.7548 204.83 69.6293C203.571 72.5038 202.522 75.47 201.683 78.5279C200.903 81.5247 200.334 84.4909 199.974 87.4265C199.614 90.3621 199.434 92.992 199.434 95.316V148.432H168.947V3.48605H199.344V58.0703C203.241 52.2602 208.008 47.7956 213.644 44.6765C219.34 41.4962 225.635 39.9061 232.53 39.9061C239.725 39.9061 245.99 41.0987 251.326 43.4839C256.662 45.8691 261.099 49.2023 264.637 53.4834C268.174 57.7033 270.812 62.7489 272.551 68.6202C274.29 74.4303 275.159 80.7908 275.159 87.7017Z" fill="#E8F2C8"/>
<path d="M320.216 98.1599C323.933 99.0161 327.651 99.6889 331.368 100.178C335.085 100.667 338.832 100.912 342.61 100.912C346.567 100.912 350.224 100.545 353.582 99.8112C356.999 99.0161 359.937 97.7318 362.395 95.9581C364.913 94.1234 366.892 91.7076 368.331 88.7108C369.77 85.7141 370.489 81.9834 370.489 77.5188C370.489 73.9104 370.01 70.6078 369.05 67.6111C368.091 64.6143 366.652 62.0456 364.733 59.905C362.875 57.7645 360.567 56.1132 357.809 54.9512C355.051 53.728 351.843 53.1164 348.186 53.1164C344.768 53.1164 341.68 53.7586 338.922 55.0429C336.224 56.3273 333.826 58.0703 331.728 60.272C329.689 62.4126 327.92 64.9201 326.421 67.7945C324.983 70.669 323.783 73.6658 322.824 76.7849C321.865 79.904 321.175 83.0536 320.756 86.2339C320.336 89.4142 320.126 92.4109 320.126 95.2242C320.126 95.7135 320.126 96.2028 320.126 96.6921C320.126 97.1813 320.156 97.6706 320.216 98.1599ZM395.131 77.2436C395.131 81.5858 394.442 85.4694 393.063 88.8943C391.684 92.258 389.795 95.2243 387.397 97.7929C385.059 100.362 382.331 102.533 379.213 104.306C376.095 106.08 372.768 107.548 369.23 108.71C365.693 109.811 362.035 110.606 358.258 111.095C354.541 111.584 350.914 111.829 347.376 111.829C342.879 111.829 338.443 111.523 334.066 110.911C329.689 110.239 325.372 109.199 321.115 107.792C321.775 111.829 322.824 115.682 324.263 119.351C325.702 122.96 327.621 126.14 330.019 128.892C332.417 131.583 335.355 133.724 338.832 135.314C342.37 136.904 346.537 137.699 351.333 137.699C354.511 137.699 357.539 137.21 360.417 136.231C363.295 135.253 365.933 133.877 368.331 132.103C370.729 130.329 372.828 128.219 374.626 125.773C376.485 123.327 377.984 120.605 379.123 117.608L392.253 122.562C390.275 127.394 387.547 131.583 384.069 135.13C380.652 138.616 376.755 141.521 372.378 143.845C368.061 146.108 363.444 147.79 358.528 148.891C353.672 149.992 348.845 150.542 344.049 150.542C336.134 150.542 328.82 149.197 322.105 146.506C315.39 143.754 309.604 139.931 304.747 135.039C299.891 130.146 296.084 124.305 293.326 117.517C290.568 110.728 289.189 103.297 289.189 95.2242C289.189 87.1513 290.568 79.7205 293.326 72.9319C296.084 66.1432 299.891 60.3026 304.747 55.4099C309.604 50.5172 315.39 46.7253 322.105 44.0343C328.82 41.2822 336.134 39.9061 344.049 39.9061C347.886 39.9061 351.813 40.1813 355.83 40.7318C359.847 41.2822 363.744 42.169 367.521 43.3922C371.299 44.5542 374.866 46.0832 378.224 47.9791C381.581 49.875 384.489 52.2296 386.947 55.0429C389.465 57.7951 391.444 61.0059 392.883 64.6754C394.382 68.345 395.131 72.5343 395.131 77.2436Z" fill="#E8F2C8"/>
<path d="M503.502 114.581C503.502 119.229 502.843 123.357 501.524 126.966C500.204 130.574 498.406 133.724 496.127 136.415C493.849 139.045 491.151 141.277 488.033 143.112C484.916 144.885 481.558 146.322 477.961 147.423C474.423 148.524 470.706 149.319 466.809 149.808C462.912 150.298 459.045 150.542 455.207 150.542C450.051 150.542 445.494 150.206 441.537 149.533C437.58 148.861 433.803 147.79 430.206 146.322C426.608 144.793 423.011 142.836 419.414 140.451C415.876 138.066 411.919 135.161 407.542 131.736L425.259 116.966C426.878 120.085 429.007 122.929 431.645 125.498C434.343 128.005 437.131 130.176 440.008 132.011C442.886 133.846 445.674 135.253 448.372 136.231C451.07 137.21 453.259 137.699 454.938 137.699C456.317 137.699 457.875 137.668 459.614 137.607C461.353 137.485 463.122 137.302 464.92 137.057C466.719 136.751 468.488 136.323 470.226 135.773C471.965 135.222 473.494 134.488 474.813 133.571C476.192 132.592 477.271 131.4 478.051 129.993C478.89 128.525 479.31 126.782 479.31 124.764C479.31 122.685 478.77 120.88 477.691 119.351C476.672 117.761 475.323 116.385 473.644 115.223C471.965 114.061 470.047 113.083 467.888 112.288C465.73 111.492 463.541 110.789 461.323 110.178C459.164 109.566 457.066 109.046 455.027 108.618C452.989 108.129 451.22 107.67 449.721 107.242C446.963 106.447 444.056 105.652 440.998 104.857C437.94 104.001 434.912 103.053 431.914 102.013C428.917 100.912 426.039 99.6277 423.281 98.1599C420.583 96.6921 418.184 94.949 416.086 92.9308C414.047 90.8514 412.399 88.4356 411.14 85.6835C409.94 82.8702 409.341 79.5982 409.341 75.8675C409.341 69.0177 410.66 63.2994 413.298 58.7124C415.996 54.0644 419.533 50.3643 423.91 47.6121C428.287 44.7988 433.263 42.8112 438.839 41.6491C444.415 40.4871 450.081 39.9061 455.837 39.9061C459.794 39.9061 463.961 40.3342 468.338 41.1904C472.715 41.9855 476.971 43.2087 481.108 44.86C485.245 46.4501 489.113 48.4072 492.71 50.7312C496.307 53.0553 499.305 55.7157 501.703 58.7124L483.986 73.574C482.667 69.9045 480.929 66.7548 478.77 64.125C476.672 61.4952 474.363 59.3546 471.845 57.7033C469.387 55.9909 466.839 54.7371 464.201 53.9421C461.623 53.147 459.224 52.7495 457.006 52.7495C454.848 52.7495 452.419 52.8412 449.721 53.0247C447.023 53.2082 444.475 53.728 442.077 54.5842C439.739 55.4404 437.73 56.7554 436.051 58.529C434.433 60.2414 433.623 62.6266 433.623 65.6846C433.623 67.8863 434.103 69.7822 435.062 71.3723C436.081 72.9013 437.4 74.2468 439.019 75.4088C440.638 76.5096 442.467 77.4576 444.505 78.2527C446.604 78.9866 448.732 79.6593 450.891 80.2709C453.049 80.8214 455.147 81.3106 457.186 81.7387C459.224 82.1669 461.053 82.6255 462.672 83.1148C465.43 83.9099 468.338 84.7355 471.396 85.5917C474.513 86.3868 477.571 87.3348 480.569 88.4356C483.567 89.4753 486.445 90.7291 489.203 92.1969C492.02 93.6035 494.479 95.3466 496.577 97.426C498.676 99.5054 500.354 101.952 501.613 104.765C502.873 107.517 503.502 110.789 503.502 114.581Z" fill="#E8F2C8"/>
<path d="M561.869 148.432H531.382V54.7677H512.496V42.4748H531.382V3.48605H561.869V42.4748H593.346V54.7677H561.869V148.432Z" fill="#E8F2C8"/>
<path d="M639.393 16.8798C639.393 19.2039 638.943 21.4056 638.044 23.485C637.204 25.5644 636.035 27.3686 634.536 28.8975C633.037 30.4265 631.269 31.6497 629.23 32.5671C627.192 33.4233 625.033 33.8514 622.755 33.8514C620.477 33.8514 618.318 33.4233 616.28 32.5671C614.301 31.6497 612.562 30.4265 611.063 28.8975C609.565 27.3686 608.365 25.5644 607.466 23.485C606.627 21.4056 606.207 19.2039 606.207 16.8798C606.207 14.5558 606.627 12.3847 607.466 10.3664C608.365 8.28702 609.565 6.48283 611.063 4.95386C612.562 3.42489 614.301 2.2323 616.28 1.37607C618.318 0.458692 620.477 0 622.755 0C625.033 0 627.192 0.458692 629.23 1.37607C631.269 2.2323 633.037 3.42489 634.536 4.95386C636.035 6.48283 637.204 8.28702 638.044 10.3664C638.943 12.3847 639.393 14.5558 639.393 16.8798ZM638.044 148.432H607.556V42.5665H638.044V148.432Z" fill="#E8F2C8"/>
<path d="M768.179 148.432H737.781V135.773C734.183 140.788 729.837 144.518 724.74 146.965C719.704 149.35 714.158 150.542 708.103 150.542C700.188 150.542 693.114 149.105 686.878 146.231C680.643 143.356 675.366 139.442 671.05 134.488C666.733 129.473 663.435 123.602 661.157 116.874C658.879 110.147 657.739 102.93 657.739 95.2242C657.739 87.5182 658.879 80.3015 661.157 73.574C663.435 66.8466 666.733 61.0059 671.05 56.052C675.366 51.037 680.643 47.0923 686.878 44.2178C693.114 41.3433 700.188 39.9061 708.103 39.9061C712.12 39.9061 715.927 40.5177 719.524 41.7409C723.182 42.9641 726.509 44.7071 729.507 46.97C732.565 49.1717 735.233 51.8627 737.511 55.0429C739.849 58.162 741.678 61.6481 742.997 65.5011L756.487 42.4748H768.179V148.432ZM737.601 95.2242C737.601 92.4721 737.451 89.5671 737.151 86.5091C736.911 83.4512 736.462 80.4238 735.802 77.427C735.143 74.4303 734.213 71.5864 733.014 68.8954C731.875 66.1432 730.376 63.7275 728.518 61.6481C726.719 59.5075 724.531 57.8256 721.952 56.6025C719.374 55.3793 716.377 54.7677 712.959 54.7677C709.542 54.7677 706.574 55.4099 704.056 56.6942C701.537 57.9174 699.379 59.5993 697.58 61.7398C695.782 63.8192 694.283 66.235 693.084 68.9871C691.944 71.7393 691.045 74.6137 690.386 77.6105C689.726 80.6073 689.246 83.6347 688.947 86.6926C688.707 89.6894 688.587 92.5333 688.587 95.2242C688.587 97.9152 688.707 100.79 688.947 103.848C689.246 106.906 689.726 109.933 690.386 112.93C691.045 115.927 691.944 118.801 693.084 121.553C694.283 124.305 695.782 126.752 697.58 128.892C699.379 130.972 701.537 132.653 704.056 133.938C706.574 135.161 709.542 135.773 712.959 135.773C716.077 135.773 718.835 135.13 721.233 133.846C723.691 132.501 725.82 130.727 727.618 128.525C729.477 126.323 731.036 123.816 732.295 121.003C733.554 118.189 734.573 115.284 735.353 112.288C736.132 109.291 736.702 106.325 737.061 103.389C737.421 100.392 737.601 97.6706 737.601 95.2242Z" fill="#E8F2C8"/>
<path d="M0 2.71454H26.3979V149.286H0V2.71454Z" fill="#E8F2C8"/>
<path d="M39.5959 2.7146H55.4347V149.286H39.5959V2.7146Z" fill="#E8F2C8"/>
<path d="M68.635 2.7146H84.4737V149.286H68.635V2.7146Z" fill="#E8F2C8"/>
<path d="M97.6736 2.7146H105.593V149.286H97.6736V2.7146Z" fill="#E8F2C8"/>
<path d="M118.791 2.7146H126.71V149.286H118.791V2.7146Z" fill="#E8F2C8"/>
<path d="M139.91 2.7146H155.749V149.286H139.91V2.7146Z" fill="#E8F2C8"/>
</svg>
